<?xml version="1.0" standalone="no"?>
<!DOCTYPE svg PUBLIC "-//W3C//DTD SVG 20010904//EN"
 "http://www.w3.org/TR/2001/REC-SVG-20010904/DTD/svg10.dtd">
<svg version="1.0" xmlns="http://www.w3.org/2000/svg"
 width="700.000000pt" height="700.000000pt" viewBox="0 0 700.000000 700.000000"
 preserveAspectRatio="xMidYMid meet">
<metadata>
Created by potrace 1.11, written by Peter Selinger 2001-2013
</metadata>
<g transform="translate(0.000000,700.000000) scale(0.100000,-0.100000)"
fill="#000000" stroke="none">
<path d="M3405 6846 c-60 -19 -95 -40 -141 -83 -252 -236 -464 -389 -724 -519
-131 -66 -284 -130 -410 -171 -151 -48 -410 -108 -516 -119 -32 -3 -61 -7 -64
-9 -4 -2 -38 -7 -76 -10 -38 -4 -85 -9 -104 -11 -19 -2 -109 -6 -200 -9 -91
-3 -190 -8 -220 -11 -134 -12 -250 -112 -278 -239 -28 -125 -33 -1579 -7
-1855 2 -19 6 -75 10 -125 3 -49 8 -99 10 -110 2 -11 7 -51 10 -90 6 -79 7
-83 36 -260 12 -71 23 -139 24 -150 3 -17 17 -86 31 -150 2 -11 6 -29 8 -40 5
-23 18 -76 41 -160 8 -33 17 -69 20 -81 11 -48 91 -279 137 -394 63 -159 177
-388 257 -514 33 -54 61 -100 61 -102 0 -3 5 -10 10 -17 6 -7 50 -66 99 -132
421 -570 1043 -1012 1841 -1308 243 -90 261 -89 590 43 342 137 614 278 875
454 330 223 575 453 850 798 27 34 205 306 205 314 0 4 6 15 14 23 20 22 145
274 195 392 98 234 209 609 251 849 6 36 13 76 16 90 9 54 26 156 29 183 2 15
7 44 10 65 2 20 7 62 10 92 3 31 7 71 10 90 2 19 7 71 11 115 3 44 8 100 10
125 18 220 22 806 10 1502 -6 352 -11 386 -64 458 -38 52 -71 80 -128 106 -58
27 -94 32 -319 39 -852 28 -1505 290 -2089 839 -100 94 -227 128 -341 92z"/>
</g>
</svg>
