<?xml version="1.0" encoding="UTF-8" standalone="no"?>
<!DOCTYPE svg PUBLIC "-//W3C//DTD SVG 1.1//EN" "http://www.w3.org/Graphics/SVG/1.1/DTD/svg11.dtd">
<svg xmlns="http://www.w3.org/2000/svg" xmlns:xl="http://www.w3.org/1999/xlink" xmlns:dc="http://purl.org/dc/elements/1.1/" version="1.1" viewBox="-26 -26 6431 1835" width="6431" height="1835">
  <defs/>
  <metadata> Produced by OmniGraffle 7.12.1 
    <dc:date>2020-02-07 21:32:49 +0000</dc:date>
  </metadata>
  <g id="Canvas_1" stroke-opacity="1" stroke-dasharray="none" fill="none" fill-opacity="1" stroke="none">
    <title>Canvas 1</title>
    <g id="Canvas_1: Layer 1">
      <title>Layer 1</title>
      <g id="Group_2">
        <g id="Group_3">
          <g id="Graphic_5">
            <path d="M 1499.504 458.86965 C 1497.3706 411.9363 1497.3706 367.13625 1497.3706 322.3362 C 1497.3706 286.0695 1469.6372 258.33616 1433.3705 258.33616 C 1166.7037 258.33616 964.0368 181.5361 795.5034 17.2693 C 769.90335 -6.197385 731.5033 -6.197385 705.9033 17.2693 C 537.3698 181.5361 334.703 258.33616 68.03612 258.33616 C 31.769425 258.33616 4.0360694 286.0695 4.0360694 322.3362 C 4.0360694 367.13625 4.0360694 411.9363 1.9027343 458.86965 C -6.630606 906.87 -19.430616 1521.2705 729.37 1779.404 L 750.7033 1783.6707 L 772.0367 1779.404 C 1518.704 1521.2705 1508.0373 909.0033 1499.504 458.86965 Z M 699.5033 1079.6702 C 686.7033 1090.3368 671.7699 1096.7368 654.70326 1096.7368 L 652.5699 1096.7368 C 635.50324 1096.7368 618.43656 1088.2035 607.7699 1075.4035 L 409.36973 855.67 L 505.3698 770.3366 L 661.1033 943.1367 L 1006.7035 614.6031 L 1094.1703 708.46985 Z" fill="#c3c3dc"/>
            <path d="M 1499.504 458.86965 C 1497.3706 411.9363 1497.3706 367.13625 1497.3706 322.3362 C 1497.3706 286.0695 1469.6372 258.33616 1433.3705 258.33616 C 1166.7037 258.33616 964.0368 181.5361 795.5034 17.2693 C 769.90335 -6.197385 731.5033 -6.197385 705.9033 17.2693 C 537.3698 181.5361 334.703 258.33616 68.03612 258.33616 C 31.769425 258.33616 4.0360694 286.0695 4.0360694 322.3362 C 4.0360694 367.13625 4.0360694 411.9363 1.9027343 458.86965 C -6.630606 906.87 -19.430616 1521.2705 729.37 1779.404 L 750.7033 1783.6707 L 772.0367 1779.404 C 1518.704 1521.2705 1508.0373 909.0033 1499.504 458.86965 Z M 699.5033 1079.6702 C 686.7033 1090.3368 671.7699 1096.7368 654.70326 1096.7368 L 652.5699 1096.7368 C 635.50324 1096.7368 618.43656 1088.2035 607.7699 1075.4035 L 409.36973 855.67 L 505.3698 770.3366 L 661.1033 943.1367 L 1006.7035 614.6031 L 1094.1703 708.46985 Z" stroke="#646478" stroke-linecap="round" stroke-linejoin="round" stroke-width="50"/>
          </g>
          <g id="Graphic_4">
            <rect x="286.83213" y="478.76134" width="911.5049" height="759.3048" fill="#c3c3dc"/>
          </g>
        </g>
      </g>
      <g id="Line_61">
        <line x1="452.095" y1="593.88545" x2="494.59066" y2="567.80216" stroke="#c8c8c8" stroke-linecap="round" stroke-linejoin="round" stroke-width="25"/>
      </g>
      <g id="Line_62">
        <line x1="450.5913" y1="686.952" x2="495.3559" y2="716.4572" stroke="#c8c8c8" stroke-linecap="round" stroke-linejoin="round" stroke-width="25"/>
      </g>
      <g id="Line_63">
        <line x1="453.1435" y1="831.3766" x2="492.9542" y2="808.0299" stroke="#c8c8c8" stroke-linecap="round" stroke-linejoin="round" stroke-width="25"/>
      </g>
      <g id="Line_64">
        <line x1="449.6563" y1="924.5529" x2="496.5104" y2="956.9593" stroke="#c8c8c8" stroke-linecap="round" stroke-linejoin="round" stroke-width="25"/>
      </g>
      <g id="Line_65">
        <line x1="451.7401" y1="1068.5353" x2="491.4068" y2="1047.2588" stroke="#c8c8c8" stroke-linecap="round" stroke-linejoin="round" stroke-width="25"/>
      </g>
      <g id="Line_66">
        <line x1="446.0713" y1="1159.6401" x2="492.4439" y2="1192.4977" stroke="#c8c8c8" stroke-linecap="round" stroke-linejoin="round" stroke-width="25"/>
      </g>
      <g id="Line_67">
        <line x1="637.6764" y1="1198.2605" x2="672.34674" y2="1177.6156" stroke="#bebebe" stroke-linecap="round" stroke-linejoin="round" stroke-width="25"/>
      </g>
      <g id="Line_68">
        <line x1="633.9191" y1="1292.741" x2="672.3472" y2="1319.9696" stroke="#bebebe" stroke-linecap="round" stroke-linejoin="round" stroke-width="25"/>
      </g>
      <g id="Line_69">
        <line x1="640.2591" y1="958.6503" x2="676.1313" y2="935.0682" stroke="#bebebe" stroke-linecap="round" stroke-linejoin="round" stroke-width="25"/>
      </g>
      <g id="Line_70">
        <line x1="641.8284" y1="719.1298" x2="673.5915" y2="699.81915" stroke="#bebebe" stroke-linecap="round" stroke-linejoin="round" stroke-width="25"/>
      </g>
      <g id="Line_71">
        <line x1="643.1348" y1="478.3541" x2="678.7073" y2="457.3428" stroke="#bebebe" stroke-linecap="round" stroke-linejoin="round" stroke-width="25"/>
      </g>
      <g id="Line_72">
        <line x1="638.2205" y1="573.9483" x2="677.9379" y2="603.27894" stroke="#bebebe" stroke-linecap="round" stroke-linejoin="round" stroke-width="25"/>
      </g>
      <g id="Line_73">
        <line x1="639.3794" y1="813.0032" x2="676.942" y2="838.6095" stroke="#bebebe" stroke-linecap="round" stroke-linejoin="round" stroke-width="25"/>
      </g>
      <g id="Line_74">
        <line x1="638.52666" y1="1056.4312" x2="676.1281" y2="1083.1012" stroke="#bebebe" stroke-linecap="round" stroke-linejoin="round" stroke-width="25"/>
      </g>
      <g id="Line_76">
        <line x1="817.0025" y1="1324.779" x2="851.4833" y2="1303.642" stroke="#afafaf" stroke-linecap="round" stroke-linejoin="round" stroke-width="25"/>
      </g>
      <g id="Line_77">
        <line x1="999.2611" y1="1212.9239" x2="1038.7712" y2="1188.6348" stroke="#a0a0a0" stroke-linecap="round" stroke-linejoin="round" stroke-width="25"/>
      </g>
      <g id="Line_78">
        <line x1="1186.4822" y1="1097.8081" x2="1227.2756" y2="1072.719" stroke="#7f807f" stroke-linecap="round" stroke-linejoin="round" stroke-width="25"/>
      </g>
      <g id="Line_79">
        <line x1="1228.0749" y1="980.6056" x2="1190.7003" y2="956.7168" stroke="#7f807f" stroke-linecap="round" stroke-linejoin="round" stroke-width="25"/>
      </g>
      <g id="Line_80">
        <line x1="1189.3491" y1="861.2865" x2="1230.1943" y2="833.5224" stroke="#7f807f" stroke-linecap="round" stroke-linejoin="round" stroke-width="25"/>
      </g>
      <g id="Line_81">
        <line x1="1229.3548" y1="737.3029" x2="1192.5563" y2="713.2161" stroke="#7f807f" stroke-linecap="round" stroke-linejoin="round" stroke-width="25"/>
      </g>
      <g id="Line_82">
        <line x1="1045.5346" y1="621.3531" x2="1001.7688" y2="595.2745" stroke="#a0a0a0" stroke-linecap="round" stroke-linejoin="round" stroke-width="25"/>
      </g>
      <g id="Line_83">
        <line x1="852.2346" y1="594.30316" x2="822.7283" y2="611.3693" stroke="#afafaf" stroke-linecap="round" stroke-linejoin="round" stroke-width="25"/>
      </g>
      <g id="Line_84">
        <line x1="818.6427" y1="704.5762" x2="857.8647" y2="732.098" stroke="#afafaf" stroke-linecap="round" stroke-linejoin="round" stroke-width="25"/>
      </g>
      <g id="Line_85">
        <line x1="1002.9281" y1="736.8752" x2="1045.9197" y2="710.7541" stroke="#a0a0a0" stroke-linecap="round" stroke-linejoin="round" stroke-width="25"/>
      </g>
      <g id="Line_86">
        <line x1="1045.9096" y1="861.3429" x2="1000.5707" y2="830.5764" stroke="#a0a0a0" stroke-linecap="round" stroke-linejoin="round" stroke-width="25"/>
      </g>
      <g id="Line_87">
        <line x1="1002.0408" y1="974.2537" x2="1041.8571" y2="952.1324" stroke="#a0a0a0" stroke-linecap="round" stroke-linejoin="round" stroke-width="25"/>
      </g>
      <g id="Line_88">
        <line x1="856.0813" y1="965.448" x2="818.7452" y2="938.3569" stroke="#afafaf" stroke-linecap="round" stroke-linejoin="round" stroke-width="25"/>
      </g>
      <g id="Line_89">
        <line x1="823.3965" y1="843.6326" x2="854.0125" y2="825.7054" stroke="#afafaf" stroke-linecap="round" stroke-linejoin="round" stroke-width="25"/>
      </g>
      <g id="Line_90">
        <line x1="819.4816" y1="1085.9275" x2="853.6092" y2="1063.6913" stroke="#afafaf" stroke-linecap="round" stroke-linejoin="round" stroke-width="25"/>
      </g>
      <g id="Line_91">
        <line x1="817.8499" y1="1182.995" x2="854.3927" y2="1208.5916" stroke="#afafaf" stroke-linecap="round" stroke-linejoin="round" stroke-width="25"/>
      </g>
      <g id="Line_92">
        <line x1="997.9184" y1="1065.1459" x2="1040.9621" y2="1094.445" stroke="#a0a0a0" stroke-linecap="round" stroke-linejoin="round" stroke-width="25"/>
      </g>
      <g id="Line_93">
        <line x1="821.3368" y1="467.0453" x2="859.3099" y2="497.0968" stroke="#afafaf" stroke-linecap="round" stroke-linejoin="round" stroke-width="25"/>
      </g>
      <g id="Line_57">
        <line x1="274.45697" y1="708.7585" x2="306.18034" y2="687.501" stroke="#e1e1e1" stroke-linecap="round" stroke-linejoin="round" stroke-width="25"/>
      </g>
      <g id="Line_58">
        <line x1="274.39343" y1="805.3761" x2="306.3944" y2="826.8806" stroke="#e1e1e1" stroke-linecap="round" stroke-linejoin="round" stroke-width="25"/>
      </g>
      <g id="Line_59">
        <line x1="272.3659" y1="943.3915" x2="305.43033" y2="922.1295" stroke="#e1e1e1" stroke-linecap="round" stroke-linejoin="round" stroke-width="25"/>
      </g>
      <g id="Line_60">
        <line x1="271.20514" y1="1038.9312" x2="303.57127" y2="1060.8717" stroke="#e1e1e1" stroke-linecap="round" stroke-linejoin="round" stroke-width="25"/>
      </g>
      <g id="Group_6">
        <g id="Graphic_7">
          <circle cx="1112.6312" cy="1143.2288" r="86.6811400335355" fill="#6600b4"/>
        </g>
      </g>
      <g id="Group_8">
        <g id="Graphic_9">
          <circle cx="1117.6486" cy="910.0241" r="86.6811400335354" fill="#6600b4"/>
        </g>
      </g>
      <g id="Group_10">
        <g id="Graphic_11">
          <circle cx="1120.0161" cy="665.7342" r="86.6811400335354" fill="#6600b4"/>
        </g>
      </g>
      <g id="Group_12">
        <g id="Graphic_13">
          <circle cx="1301.895" cy="784.7848" r="86.6811400335355" fill="#4a007a"/>
        </g>
      </g>
      <g id="Group_16">
        <g id="Graphic_17">
          <circle cx="1301.1266" cy="1027.2983" r="86.6811400335355" fill="#4a007a"/>
        </g>
      </g>
      <g id="Group_18">
        <g id="Graphic_19">
          <circle cx="378.20297" cy="639.23945" r="86.6811400335352" fill="#e091ff"/>
        </g>
      </g>
      <g id="Group_20">
        <g id="Graphic_21">
          <circle cx="202.43434" cy="757.0201" r="86.6811400335353" fill="#f6d7ff"/>
        </g>
      </g>
      <g id="Group_24">
        <g id="Graphic_25">
          <circle cx="199.44274" cy="990.2844" r="86.6811400335351" fill="#f6d7ff"/>
        </g>
      </g>
      <g id="Group_26">
        <g id="Graphic_27">
          <circle cx="378.3535" cy="875.2366" r="86.6811400335351" fill="#e091ff"/>
        </g>
      </g>
      <g id="Group_28">
        <g id="Graphic_29">
          <circle cx="375.33367" cy="1109.5185" r="86.6811400335352" fill="#e091ff"/>
        </g>
      </g>
      <g id="Group_30">
        <g id="Graphic_31">
          <circle cx="568.4827" cy="522.44816" r="86.6811400335352" fill="#c26aff"/>
        </g>
      </g>
      <g id="Group_32">
        <g id="Graphic_33">
          <circle cx="567.7442" cy="764.1698" r="86.6811400335351" fill="#c26aff"/>
        </g>
      </g>
      <g id="Group_34">
        <g id="Graphic_35">
          <circle cx="567.8132" cy="1006.2756" r="86.6811400335353" fill="#c26aff"/>
        </g>
      </g>
      <g id="Group_36">
        <g id="Graphic_37">
          <circle cx="563.18157" cy="1242.6193" r="86.6811400335353" fill="#c26aff"/>
        </g>
      </g>
      <g id="Group_38">
        <g id="Graphic_39">
          <circle cx="747.6757" cy="654.7791" r="86.6811400335351" fill="#9851ff"/>
        </g>
      </g>
      <g id="Group_40">
        <g id="Graphic_41">
          <circle cx="748.5772" cy="887.4429" r="86.6811400335354" fill="#9851ff"/>
        </g>
      </g>
      <g id="Group_42">
        <g id="Graphic_43">
          <circle cx="746.8415" cy="1133.2568" r="86.6811400335355" fill="#9851ff"/>
        </g>
      </g>
      <g id="Group_44">
        <g id="Graphic_45">
          <circle cx="743.0848" cy="1370.0913" r="86.6811400335354" fill="#9851ff"/>
        </g>
      </g>
      <g id="Group_46">
        <g id="Graphic_47">
          <circle cx="753.3594" cy="413.24874" r="86.6811400335353" fill="#9851ff"/>
        </g>
      </g>
      <g id="Group_48">
        <g id="Graphic_49">
          <circle cx="927.2873" cy="550.8934" r="86.6811400335356" fill="#7e0bc7"/>
        </g>
      </g>
      <g id="Group_50">
        <g id="Graphic_51">
          <circle cx="928.8317" cy="781.8952" r="86.6811400335353" fill="#7e0bc7"/>
        </g>
      </g>
      <g id="Group_52">
        <g id="Graphic_53">
          <circle cx="926.2493" cy="1016.362" r="86.6811400335353" fill="#7e0bc7"/>
        </g>
      </g>
      <g id="Group_54">
        <g id="Graphic_55">
          <circle cx="925.4011" cy="1258.3299" r="86.6811400335357" fill="#7e0bc7"/>
        </g>
      </g>
      <g id="Group_103">
        <title>Claimless</title>
        <g id="Graphic_94">
          <path d="M 2305.688 1006.4903 L 2306.7427 1009.6544 C 2308.149 1091.5688 2283.1883 1155.7284 2231.86 1202.1348 C 2180.5315 1248.5413 2109.6924 1271.7442 2019.3404 1271.7442 C 1927.2305 1271.7442 1852.8758 1242.1254 1796.274 1182.8868 C 1739.672 1123.6482 1711.3716 1047.0963 1711.3716 953.2286 L 1711.3716 800.82625 C 1711.3716 707.31016 1738.969 630.7582 1794.1646 571.16805 C 1849.3602 511.5779 1921.7813 481.7833 2011.4302 481.7833 C 2104.9463 481.7833 2178.0706 504.6346 2230.8052 550.338 C 2283.5398 596.0413 2309.2036 660.3766 2307.7974 743.3458 L 2306.7427 746.5098 L 2156.977 746.5098 C 2156.977 697.29085 2145.112 660.6408 2121.3814 636.5587 C 2097.6508 612.4765 2061.0008 600.4356 2011.4302 600.4356 C 1965.3753 600.4356 1929.4284 618.98036 1903.5884 656.0704 C 1877.7484 693.1604 1864.8286 741.0603 1864.8286 799.7716 L 1864.8286 953.2286 C 1864.8286 1012.2914 1878.4515 1060.455 1905.6978 1097.7208 C 1932.944 1134.9866 1970.8245 1153.6192 2019.3404 1153.6192 C 2065.3953 1153.6192 2099.7602 1141.5783 2122.436 1117.4962 C 2145.112 1093.414 2156.4497 1056.4124 2156.4497 1006.4903 Z" fill="#646577"/>
        </g>
        <g id="Graphic_95">
          <rect x="2413.266" y="438.01375" width="153.98437" height="822.65625" fill="#646577"/>
        </g>
        <g id="Graphic_96">
          <path d="M 3030.2583 1260.67 C 3024.6333 1247.6621 3019.7994 1233.9513 3015.7564 1219.5372 C 3011.7134 1205.123 3008.813 1190.3576 3007.0552 1175.2403 C 2991.2348 1203.0139 2970.317 1226.041 2944.3013 1244.3223 C 2918.2855 1262.6037 2887.3483 1271.7442 2851.4888 1271.7442 C 2791.723 1271.7442 2745.6686 1256.3635 2713.3247 1225.6016 C 2680.9808 1194.8398 2664.809 1152.9164 2664.809 1099.8302 C 2664.809 1043.9314 2686.342 1000.6018 2729.4087 969.8399 C 2772.4753 939.078 2835.3165 923.6973 2917.934 923.6973 L 3004.4185 923.6973 L 3004.4185 878.3458 C 3004.4185 850.9238 2997.2115 829.6545 2982.7974 814.5372 C 2968.3832 799.4199 2946.938 791.8614 2918.4614 791.8614 C 2893.5004 791.8614 2874.2525 797.9258 2860.7173 810.0548 C 2847.182 822.1837 2840.4146 838.7949 2840.4146 859.8888 L 2692.231 859.8888 L 2691.1763 856.7247 C 2688.7153 808.5604 2709.721 766.9885 2754.194 732.0079 C 2798.6667 697.02725 2856.762 679.5372 2928.481 679.5372 C 2997.036 679.5372 3052.4944 696.7636 3094.858 731.2169 C 3137.2214 765.6702 3158.403 815.0642 3158.403 879.4005 L 3158.403 1115.1231 C 3158.403 1141.842 3160.4243 1166.9785 3164.4673 1190.5333 C 3168.5103 1214.0881 3174.9262 1237.4668 3183.7154 1260.67 Z M 2889.4575 1157.838 C 2916.1764 1157.838 2940.0824 1151.1583 2961.1763 1137.7989 C 2982.27 1124.4395 2996.684 1108.9709 3004.4185 1091.3927 L 3004.4185 1010.7091 L 2917.934 1010.7091 C 2885.2386 1010.7091 2860.5416 1018.7949 2843.8423 1034.9669 C 2827.143 1051.1388 2818.7935 1071.0019 2818.7935 1094.5567 C 2818.7935 1113.8928 2825.0337 1129.2735 2837.5142 1140.6993 C 2849.9947 1152.1251 2867.309 1157.838 2889.4575 1157.838 Z" fill="#994fff"/>
        </g>
        <g id="Graphic_97">
          <path d="M 3435.7857 1260.67 L 3281.8013 1260.67 L 3281.8013 690.0841 L 3435.7857 690.0841 Z M 3435.7857 553.502 L 3281.8013 553.502 L 3281.8013 438.01375 L 3435.7857 438.01375 Z" fill="#994fff"/>
        </g>
        <g id="Graphic_98">
          <path d="M 3705.2583 690.0841 L 3711.5864 765.4942 C 3729.868 738.0722 3752.807 716.8908 3780.405 701.9493 C 3808.0026 687.0078 3839.9066 679.5372 3876.1177 679.5372 C 3912.6804 679.5372 3943.969 687.62304 3969.985 703.795 C 3996.0006 719.96696 4015.688 744.4003 4029.0474 777.0958 C 4046.6256 746.5097 4069.477 722.6037 4097.602 705.377 C 4125.727 688.1504 4158.774 679.5372 4196.7427 679.5372 C 4252.993 679.5372 4297.3773 699.4882 4329.897 739.3907 C 4362.4167 779.2932 4378.6763 840.2008 4378.6763 922.1153 L 4378.6763 1260.67 L 4224.692 1260.67 L 4224.692 921.588 C 4224.692 875.8846 4217.6607 844.0685 4203.598 826.13875 C 4189.5356 808.209 4168.618 799.2442 4140.8443 799.2442 C 4119.0473 799.2442 4100.151 804.0782 4084.155 813.7462 C 4068.1586 823.4142 4055.4146 836.8613 4045.9224 854.088 C 4045.9224 860.7677 4046.098 866.4805 4046.4497 871.2266 C 4046.8013 875.9728 4046.977 880.8067 4046.977 885.7286 L 4046.977 1260.67 L 3893.52 1260.67 L 3893.52 921.588 C 3893.52 876.9393 3886.489 845.3869 3872.4263 826.9298 C 3858.3637 808.4726 3837.27 799.2442 3809.145 799.2442 C 3788.4027 799.2442 3770.2096 803.1993 3754.565 811.1095 C 3738.9204 819.01965 3726.0006 830.1816 3715.805 844.5958 L 3715.805 1260.67 L 3562.348 1260.67 L 3562.348 690.0841 Z" fill="#646577"/>
        </g>
        <g id="Graphic_99">
          <rect x="4504.7114" y="438.01375" width="153.98438" height="822.65625" fill="#646577"/>
        </g>
        <g id="Graphic_100">
          <path d="M 5032.5825 1271.7442 C 4947.504 1271.7442 4881.0593 1245.641 4833.2466 1193.4337 C 4785.434 1141.2264 4761.528 1073.9907 4761.528 991.7247 L 4761.528 970.6309 C 4761.528 885.2008 4784.731 815.2406 4831.137 760.7481 C 4877.544 706.2557 4941.3517 679.1856 5022.563 679.5372 C 5099.204 679.5372 5158.002 703.00375 5198.9595 749.9376 C 5239.917 796.8714 5260.395 860.0641 5260.395 939.5177 L 5260.395 1019.1466 L 4920.2583 1019.1466 L 4918.676 1022.3106 C 4921.137 1061.3343 4933.0024 1092.9746 4954.272 1117.2325 C 4975.5416 1141.4904 5007.094 1153.6192 5048.93 1153.6192 C 5083.3835 1153.6192 5112.651 1150.1036 5136.733 1143.0723 C 5160.815 1136.041 5185.688 1125.3185 5211.352 1110.9044 L 5253.012 1205.8262 C 5230.1606 1224.4592 5199.2234 1240.1035 5160.2 1252.7598 C 5121.176 1265.4162 5078.6375 1271.7442 5032.5825 1271.7442 Z M 5022.563 798.1895 C 4991.6254 798.1895 4967.807 808.8242 4951.108 830.0938 C 4934.4086 851.3635 4924.3013 879.5761 4920.7857 914.7325 L 4921.8404 917.3692 L 5109.575 917.3692 L 5109.575 905.7677 C 5109.575 872.369 5102.7193 846.09 5089.0083 826.9298 C 5075.2973 807.7695 5053.149 798.1895 5022.563 798.1895 Z" fill="#646577"/>
        </g>
        <g id="Graphic_101">
          <path d="M 5658.5396 1102.4669 C 5658.5396 1085.5918 5650.366 1071.09 5634.018 1058.961 C 5617.6703 1046.832 5587.3484 1036.1974 5543.051 1027.0567 C 5476.254 1013.6973 5425.542 993.4826 5390.9126 966.4122 C 5356.2835 939.3417 5338.969 902.6038 5338.969 856.1973 C 5338.969 807.3299 5359.711 765.6702 5401.196 731.2169 C 5442.6804 696.7636 5497.875 679.5372 5566.782 679.5372 C 5638.8524 679.5372 5696.596 696.7636 5740.014 731.2169 C 5783.4324 765.6702 5804.262 808.5604 5802.5044 859.8888 L 5801.45 863.0528 L 5652.739 863.0528 C 5652.739 840.2011 5645.356 821.5685 5630.5904 807.1544 C 5615.8247 792.7402 5594.5553 785.5333 5566.782 785.5333 C 5542.172 785.5333 5522.661 791.6856 5508.2466 803.9903 C 5493.8325 816.2951 5486.6255 831.4121 5486.6255 849.3419 C 5486.6255 866.9201 5494.096 881.2461 5509.0376 892.3204 C 5523.979 903.3947 5554.301 913.3262 5600.0044 922.1153 C 5669.966 936.1779 5722.084 956.832 5756.362 984.0782 C 5790.6394 1011.3244 5807.778 1048.8534 5807.778 1096.6661 C 5807.778 1147.9945 5785.8054 1190.0058 5741.86 1222.7012 C 5697.9144 1255.3967 5639.907 1271.7442 5567.8364 1271.7442 C 5491.8986 1271.7442 5431.87 1252.4964 5387.7486 1214.0001 C 5343.627 1175.5038 5322.6216 1131.6468 5324.731 1082.4278 L 5325.7857 1079.2638 L 5466.5864 1079.2638 C 5467.641 1109.8498 5477.6606 1131.998 5496.645 1145.709 C 5515.6295 1159.42 5540.4144 1166.2755 5571.0005 1166.2755 C 5599.477 1166.2755 5621.186 1160.5626 5636.1275 1149.1368 C 5651.069 1137.711 5658.5396 1122.1545 5658.5396 1102.4669 Z" fill="#646577"/>
        </g>
        <g id="Graphic_102">
          <path d="M 6215.4146 1102.4669 C 6215.4146 1085.5918 6207.241 1071.09 6190.893 1058.961 C 6174.545 1046.832 6144.2234 1036.1974 6099.926 1027.0567 C 6033.129 1013.6973 5982.417 993.4826 5947.7876 966.4122 C 5913.1585 939.3417 5895.844 902.6038 5895.844 856.1973 C 5895.844 807.3299 5916.586 765.6702 5958.071 731.2169 C 5999.5554 696.7636 6054.75 679.5372 6123.657 679.5372 C 6195.7274 679.5372 6253.471 696.7636 6296.889 731.2169 C 6340.307 765.6702 6361.137 808.5604 6359.3794 859.8888 L 6358.325 863.0528 L 6209.614 863.0528 C 6209.614 840.2011 6202.231 821.5685 6187.465 807.1544 C 6172.7 792.7402 6151.43 785.5333 6123.657 785.5333 C 6099.047 785.5333 6079.536 791.6856 6065.1216 803.9903 C 6050.7075 816.2951 6043.5005 831.4121 6043.5005 849.3419 C 6043.5005 866.9201 6050.971 881.2461 6065.9126 892.3204 C 6080.854 903.3947 6111.176 913.3262 6156.8794 922.1153 C 6226.841 936.1779 6278.959 956.832 6313.237 984.0782 C 6347.514 1011.3244 6364.653 1048.8534 6364.653 1096.6661 C 6364.653 1147.9945 6342.6804 1190.0058 6298.735 1222.7012 C 6254.789 1255.3967 6196.782 1271.7442 6124.7114 1271.7442 C 6048.7736 1271.7442 5988.745 1252.4964 5944.6236 1214.0001 C 5900.502 1175.5038 5879.4966 1131.6468 5881.606 1082.4278 L 5882.661 1079.2638 L 6023.4614 1079.2638 C 6024.516 1109.8498 6034.5356 1131.998 6053.52 1145.709 C 6072.5045 1159.42 6097.2894 1166.2755 6127.8755 1166.2755 C 6156.352 1166.2755 6178.061 1160.5626 6193.0025 1149.1368 C 6207.944 1137.711 6215.4146 1122.1545 6215.4146 1102.4669 Z" fill="#646577"/>
        </g>
      </g>
    </g>
  </g>
</svg>
